<svg height="512pt" viewBox="0 0 512 512" width="512pt" xmlns="http://www.w3.org/2000/svg"><path d="m117.460938 146.367188c-4.117188 0-8.242188-1.484376-11.515626-4.484376-6.953124-6.367187-7.425781-17.152343-1.070312-24.101562 20.085938-21.949219 45.144531-39.550781 72.460938-50.917969 8.699218-3.632812 18.699218.5 22.316406 9.1875 3.617187 8.699219-.5 18.699219-9.199219 22.316407-22.757813 9.480468-43.640625 24.164062-60.390625 42.449218-3.371094 3.683594-7.976562 5.550782-12.601562 5.550782zm0 0"/><path d="m502.09375 325.746094c.324219-.800782.433594-1.613282.628906-2.445313 5.871094-21.484375 9.277344-43.980469 9.277344-67.300781 0-141.167969-114.839844-256-256-256s-256 114.832031-256 256c0 73.648438 31.4375 139.9375 81.386719 186.683594.9375 1.046875 1.894531 2.007812 3.085937 2.804687 45.449219 41.179688 105.511719 66.511719 171.527344 66.511719 5.648438 0 11.179688-.488281 16.742188-.847656.347656.023437.695312.148437 1.042968.148437.617188 0 1.191406-.222656 1.800782-.292969 108.269531-8.253906 197.761718-84 226.507812-185.261718zm-24.226562-69.746094c0 11.03125-1.074219 21.789062-2.640626 32.390625-43.652343-31.957031-96.210937-49.457031-150.960937-49.457031-5.179687 0-10.296875.335937-15.421875.644531-2.691406-20.253906-6.554688-39.992187-11.105469-59.363281 41.726563-19.78125 77.6875-50.929688 103.988281-91.097656 46.550782 40.699218 76.140626 100.34375 76.140626 166.882812zm-103.707032-187.453125c-21.675781 33.730469-51.140625 60.101563-85.40625 77.613281-12.1875-40.582031-28.542968-78.117187-48.554687-111.226562 5.242187-.371094 10.46875-.800782 15.800781-.800782 43.453125 0 83.902344 12.742188 118.160156 34.414063zm-170.695312-27.867187c22.582031 34.273437 40.777344 74.449218 53.707031 118.554687-22.058594 7.214844-45.308594 11.433594-69.4375 11.433594-42.386719 0-82.960937-11.824219-118.335937-34.222657 30.351562-47.207031 78.042968-82.089843 134.066406-95.765624zm-169.332032 215.320312c0-31.816406 6.855469-62.019531 18.972657-89.402344 40.371093 25.050782 86.507812 38.203125 134.628906 38.203125 27.007813 0 53.21875-4.210937 77.992187-12.050781 3.769532 16.722656 7 33.734375 9.3125 51.171875-84.347656 16.617187-155.6875 75.003906-188.101562 155.410156-32.863281-38.703125-52.804688-88.703125-52.804688-143.332031zm79.421876 169.867188c24.792968-75.730469 88.46875-131.617188 164.953124-147.824219 1.152344 15.28125 1.875 30.683593 1.875 46.222656 0 53.347656-6.921874 104.789063-20 153.378906-1.472656.03125-2.90625.222657-4.382812.222657-54.203125 0-103.871094-19.597657-142.445312-52zm182.9375 48.121093c11.726562-47.773437 18.023437-97.917969 18.023437-149.722656 0-17.039063-.859375-33.929687-2.179687-50.699219 3.96875-.214844 7.921874-.5 11.929687-.5 52.4375 0 102.511719 18.535156 142.429687 52.058594-25.027343 76.074219-90.09375 134.007812-170.203124 148.863281zm0 0"/></svg>