<?xml version="1.0" encoding="iso-8859-1"?>
<!-- Generator: Adobe Illustrator 19.0.0, SVG Export Plug-In . SVG Version: 6.00 Build 0)  -->
<svg version="1.1" id="Capa_1" xmlns="http://www.w3.org/2000/svg" xmlns:xlink="http://www.w3.org/1999/xlink" x="0px" y="0px"
	 viewBox="0 0 468.293 468.293" style="enable-background:new 0 0 468.293 468.293;" xml:space="preserve">
<g>
	<path style="fill:#3A556A;" d="M311.571,443.317h-8.741c-7.493,0-13.112-5.62-13.112-13.112v-18.107H178.576v18.107
		c0,7.493-5.62,13.112-13.112,13.112h-8.741c-6.244,0-12.488,4.371-13.112,11.239c-0.624,7.493,4.995,13.737,12.488,13.737h156.098
		c7.493,0,13.112-6.244,12.488-13.737C324.059,448.312,317.815,443.317,311.571,443.317z"/>
	<path style="fill:#3A556A;" d="M424.585,357.776H43.707V134.244c0-6.868,5.62-12.488,12.488-12.488h355.902
		c6.868,0,12.488,5.62,12.488,12.488V357.776z"/>
</g>
<path style="fill:#64798A;" d="M424.585,357.776H43.707v48.702c0,6.868,5.62,12.488,12.488,12.488h355.902
	c6.868,0,12.488-5.62,12.488-12.488V357.776z"/>
<circle style="fill:#3A556A;" cx="234.146" cy="388.371" r="20.605"/>
<rect x="55.571" y="134.244" style="fill:#27A2DB;" width="356.527" height="211.044"/>
<rect x="199.805" y="34.966" style="fill:#FCD462;" width="68.683" height="203.551"/>
<g>
	<rect x="216.663" y="34.966" style="fill:#F6C358;" width="17.483" height="203.551"/>
	<rect x="251.629" y="34.966" style="fill:#F6C358;" width="17.483" height="203.551"/>
</g>
<path style="fill:#E1E6E9;" d="M268.488,238.517l-14.985,23.727l-14.985,23.102c-1.873,3.122-6.244,3.122-8.117,0l-14.985-23.102
	l-14.985-23.727H268.488z"/>
<g>
	<path style="fill:#3A556A;" d="M253.502,262.244l-14.985,23.102c-1.873,3.122-6.244,3.122-8.117,0l-14.985-23.102
		c6.244-0.624,12.488-1.249,19.356-1.249C241.015,260.995,247.259,261.62,253.502,262.244z"/>
	<path style="fill:#3A556A;" d="M268.488,40.585h-68.683V12.488C199.805,5.62,205.424,0,212.293,0H256
		c6.868,0,12.488,5.62,12.488,12.488V40.585z"/>
</g>
<path style="fill:#1C75A1;" d="M234.146,320.937c-46.829,0-84.917-38.088-84.917-84.917c0-3.746,2.498-6.244,6.244-6.244
	c3.746,0,6.244,2.498,6.244,6.244c0,39.961,32.468,72.429,72.429,72.429s72.429-32.468,72.429-72.429
	c0-3.746,2.498-6.244,6.244-6.244s6.244,2.498,6.244,6.244C319.063,282.849,280.976,320.937,234.146,320.937z"/>
<g>
</g>
<g>
</g>
<g>
</g>
<g>
</g>
<g>
</g>
<g>
</g>
<g>
</g>
<g>
</g>
<g>
</g>
<g>
</g>
<g>
</g>
<g>
</g>
<g>
</g>
<g>
</g>
<g>
</g>
</svg>
