<?xml version="1.0" ?><svg viewBox="0 0 64 64" xmlns="http://www.w3.org/2000/svg"><title/><path d="M33,8C20.663,8,13,14.9,13,26c0,6.623,2.513,11.907,6.562,13.792a5.447,5.447,0,0,0,.81.3c-.3,1.376-.852,3.718-.852,3.718-1.218,4.577-1.014,8.1.59,10.184A5.186,5.186,0,0,0,24.4,56c1.562,0,3.8-1.643,5.45-4a2,2,0,0,0-3.277-2.294,7.272,7.272,0,0,1-2.37,2.282,1.132,1.132,0,0,1-.918-.435c-.6-.787-.895-2.964.1-6.714l3.14-13.892a4.334,4.334,0,0,1-1.048-3.173c0-3.5,2.715-6.256,5.238-6.256,2.145,0,3.143,2.259,3.143,4.19,0,2.157-1.386,4.345-2.1,7.333-.592,2.5.675,5.238,3.143,5.238,4.469,0,8.267-4.868,8.267-11.669,0-6.02-4.185-10.331-10.362-10.331A11.086,11.086,0,0,0,21.316,27.3c0,2.161.3,3.61,1.334,4.869a.752.752,0,0,1,.174.721c-.191.795-.615,2.5-.7,2.852-.11.46-.365.558-.841.336-.153-.071-.3-.154-.44-.238.034.052.063.109.1.16a5.315,5.315,0,0,1-1.426-1.244,10.342,10.342,0,0,1-2.269-5.626A19.562,19.562,0,0,1,17,26c0-8.766,5.981-14,16-14,8.822,0,16,6.729,16,15,0,9.122-5.589,16-13,16a5.41,5.41,0,0,1-3.872-1.415A2,2,0,1,0,29.3,44.415,9.352,9.352,0,0,0,36,47c9.691,0,17-8.6,17-20C53,16.523,44.028,8,33,8Z"/></svg>