<?xml version="1.0" encoding="iso-8859-1"?>
<!-- Generator: Adobe Illustrator 19.0.0, SVG Export Plug-In . SVG Version: 6.00 Build 0)  -->
<svg version="1.1" id="Capa_1" xmlns="http://www.w3.org/2000/svg" xmlns:xlink="http://www.w3.org/1999/xlink" x="0px" y="0px"
	 viewBox="0 0 480 480" style="enable-background:new 0 0 480 480;" xml:space="preserve">
<path style="fill:#F0F0F0;" d="M119.992,8h240.016C377.677,8,392,22.323,392,39.992v400.016C392,457.677,377.677,472,360.008,472
	H119.992C102.323,472,88,457.677,88,440.008V39.992C88,22.323,102.323,8,119.992,8z"/>
<path style="fill:#DC4D41;" d="M168,40h48l0,0v72c0,13.255-10.745,24-24,24s-24-10.745-24-24V40L168,40z"/>
<g>
	<path style="fill:#F0F0F0;" d="M120,40h48l0,0v72c0,13.255-10.745,24-24,24s-24-10.745-24-24V40L120,40z"/>
	<path style="fill:#F0F0F0;" d="M216,40h48l0,0v72c0,13.255-10.745,24-24,24c-13.255,0-24-10.745-24-24V40L216,40z"/>
</g>
<path style="fill:#DC4D41;" d="M264,40h48l0,0v72c0,13.255-10.745,24-24,24s-24-10.745-24-24V40L264,40z"/>
<path style="fill:#F0F0F0;" d="M312,40h48l0,0v72c0,13.255-10.745,24-24,24s-24-10.745-24-24V40L312,40z"/>
<circle style="fill:#D9D9D9;" cx="240" cy="424" r="24"/>
<ellipse style="fill:#EBEBEB;" cx="240" cy="420" rx="23.6" ry="20"/>
<path style="fill:#B3E4E8;" d="M360,360H120V40h240V360z"/>
<path style="fill:#8ACED8;" d="M120,88h240v56H120V88z"/>
<g>
	<path style="fill:#3B869E;" d="M280,340c-6.627,0-12-5.373-12-12s5.373-12,12-12s12,5.373,12,12S286.627,340,280,340z M280,324
		c-2.209,0-4,1.791-4,4s1.791,4,4,4s4-1.791,4-4S282.209,324,280,324z"/>
	<path style="fill:#3B869E;" d="M232,340c-6.627,0-12-5.373-12-12s5.373-12,12-12s12,5.373,12,12S238.627,340,232,340z M232,324
		c-2.209,0-4,1.791-4,4s1.791,4,4,4s4-1.791,4-4S234.209,324,232,324z"/>
</g>
<path style="fill:none;stroke:#000000;stroke-width:2;stroke-linecap:round;stroke-linejoin:round;" d="M296,264h-80l-16-64h120
	L296,264z"/>
<g>
	<path style="fill:#3B869E;" d="M272,240h-24c-4.418,0-8-3.582-8-8s3.582-8,8-8h24c4.418,0,8,3.582,8,8S276.418,240,272,240z"/>
	<path style="fill:#3B869E;" d="M288,304h-64c-3.672-0.001-6.871-2.501-7.76-6.064L185.752,176H160c-4.418,0-8-3.582-8-8
		s3.582-8,8-8h32c3.672,0.001,6.871,2.501,7.76,6.064L230.248,288H288c4.418,0,8,3.582,8,8S292.418,304,288,304z"/>
</g>
<path style="fill:#DC4D41;" d="M168,88v24c0,13.255,10.745,24,24,24s24-10.745,24-24V88H168z"/>
<g>
	<path style="fill:#EAEAE8;" d="M120,88v24c0,13.255,10.745,24,24,24s24-10.745,24-24V88H120z"/>
	<path style="fill:#EAEAE8;" d="M216,88v24c0,13.255,10.745,24,24,24c13.255,0,24-10.745,24-24V88H216z"/>
</g>
<path style="fill:#DC4D41;" d="M264,88v24c0,13.255,10.745,24,24,24s24-10.745,24-24V88H264z"/>
<path style="fill:#EAEAE8;" d="M312,112c0,13.255,10.745,24,24,24s24-10.745,24-24V88h-48V112z"/>
<path style="fill:#C7463B;" d="M168,40h48v48h-48V40z"/>
<g>
	<path style="fill:#B9B9B9;" d="M120,40h48v48h-48V40z"/>
	<path style="fill:#B9B9B9;" d="M216,40h48v48h-48V40z"/>
</g>
<path style="fill:#C7463B;" d="M264,40h48v48h-48V40z"/>
<path style="fill:#B9B9B9;" d="M312,40h48v48h-48V40z"/>
<path style="fill:#3B869E;" d="M296,272h-80c-3.672-0.001-6.871-2.501-7.76-6.064l-16-64c-1.069-4.287,1.539-8.629,5.826-9.698
	C198.699,192.08,199.348,192,200,192h120c4.418-0.004,8.004,3.574,8.008,7.992c0.001,0.965-0.172,1.921-0.512,2.824l-24,64
	C302.322,269.937,299.335,272.003,296,272L296,272z M222.248,256h68.208l18-48h-98.208L222.248,256z"/>
<path d="M80,40v400c0,22.091,17.909,40,40,40h240c22.091,0,40-17.909,40-40V40c0-22.091-17.909-40-40-40H120
	C97.909,0,80,17.909,80,40z M96,40c0-13.255,10.745-24,24-24h240c13.255,0,24,10.745,24,24v400c0,13.255-10.745,24-24,24H120
	c-13.255,0-24-10.745-24-24V40z"/>
<path d="M240,392c-17.673,0-32,14.327-32,32s14.327,32,32,32s32-14.327,32-32S257.673,392,240,392z M240,440
	c-8.837,0-16-7.163-16-16s7.163-16,16-16c8.837,0,16,7.163,16,16S248.837,440,240,440z"/>
<path d="M120,368h240c4.418,0,8-3.582,8-8V32H112v328C112,364.418,115.582,368,120,368z M128,352V139.552
	c13.156,7.871,30.074,5.076,40-6.608c11.333,13.255,31.265,14.813,44.519,3.481c1.249-1.068,2.413-2.232,3.481-3.481
	c11.333,13.255,31.265,14.813,44.519,3.481c1.249-1.068,2.413-2.232,3.481-3.481c11.333,13.255,31.265,14.813,44.519,3.481
	c1.249-1.068,2.413-2.232,3.481-3.481c9.926,11.684,26.844,14.479,40,6.608V352H128z M176,96h32v16c0,8.837-7.163,16-16,16
	s-16-7.163-16-16V96z M272,96h32v16c0,8.837-7.163,16-16,16s-16-7.163-16-16V96z M224,96h32v16c0,8.837-7.163,16-16,16
	c-8.837,0-16-7.163-16-16V96z M352,112c0,8.837-7.163,16-16,16s-16-7.163-16-16V96h32V112z M352,48v32h-32V48H352z M304,48v32h-32
	V48H304z M256,48v32h-32V48H256z M208,48v32h-32V48H208z M128,48h32v32h-32V48z M160,96v16c0,8.837-7.163,16-16,16s-16-7.163-16-16
	V96H160z"/>
<path d="M280,316c-6.627,0-12,5.373-12,12s5.373,12,12,12s12-5.373,12-12S286.627,316,280,316z M280,332c-2.209,0-4-1.791-4-4
	s1.791-4,4-4s4,1.791,4,4S282.209,332,280,332z"/>
<path d="M232,316c-6.627,0-12,5.373-12,12s5.373,12,12,12s12-5.373,12-12S238.627,316,232,316z M232,332c-2.209,0-4-1.791-4-4
	s1.791-4,4-4s4,1.791,4,4S234.209,332,232,332z"/>
<path d="M320,192H206.24l-6.48-25.936c-0.889-3.563-4.088-6.063-7.76-6.064h-32c-4.418,0-8,3.582-8,8s3.582,8,8,8h25.752
	l30.488,121.936c0.889,3.563,4.088,6.063,7.76,6.064h64c4.418,0,8-3.582,8-8s-3.582-8-8-8h-57.752l-4-16H296
	c3.335,0.003,6.322-2.063,7.496-5.184l24-64c1.555-4.136-0.536-8.749-4.672-10.304C321.921,192.173,320.965,191.999,320,192L320,192
	z M290.456,256h-68.208l-12-48h98.208L290.456,256z"/>
<path d="M248,240h24c4.418,0,8-3.582,8-8s-3.582-8-8-8h-24c-4.418,0-8,3.582-8,8S243.582,240,248,240z"/>
<g>
</g>
<g>
</g>
<g>
</g>
<g>
</g>
<g>
</g>
<g>
</g>
<g>
</g>
<g>
</g>
<g>
</g>
<g>
</g>
<g>
</g>
<g>
</g>
<g>
</g>
<g>
</g>
<g>
</g>
</svg>
